<svg width="80" height="80" viewBox="0 0 80 80" fill="none" xmlns="http://www.w3.org/2000/svg">
<path d="M76.2523 56.9047C74.0323 61.6654 70.8964 65.9423 67.0236 69.4911C63.1508 73.0399 58.6169 75.7911 53.6808 77.5877L40 40L76.2523 56.9047Z" fill="#24AD58"/>
<path d="M53.6808 77.5877C48.7447 79.3843 43.5031 80.191 38.2552 79.9619C33.0074 79.7328 27.856 78.4723 23.0953 76.2523L40 40L53.6808 77.5877Z" fill="#2081C1"/>
<path d="M23.0953 76.2523C13.4806 71.7689 6.04068 63.6497 2.41231 53.6808L40 40L23.0953 76.2523Z" fill="#79467D"/>
<path d="M2.41231 53.6808C-1.21607 43.7119 -0.735711 32.71 3.7477 23.0953L40 40L2.41231 53.6808Z" fill="#D73A51"/>
<path d="M3.7477 23.0953C8.23111 13.4806 16.3503 6.04067 26.3192 2.4123L40 40L3.7477 23.0953Z" fill="#F36346"/>
<path d="M26.3192 2.4123C31.2553 0.615708 36.4969 -0.191054 41.7448 0.0380728C46.9927 0.2672 52.144 1.52773 56.9047 3.74769L40 40L26.3192 2.4123Z" fill="#FA9E29"/>
<path d="M56.9047 3.74769C61.6655 5.96765 65.9423 9.10357 69.4911 12.9764C73.0399 16.8492 75.7911 21.3831 77.5877 26.3192L40 40L56.9047 3.74769Z" fill="#F7C335"/>
<path d="M77.5877 26.3192C79.3843 31.2553 80.1911 36.4969 79.9619 41.7448C79.7328 46.9927 78.4723 52.144 76.2523 56.9047L40 40L77.5877 26.3192Z" fill="#85BF32"/>
<rect x="17.12" y="17.12" width="45.7872" height="45.7872" rx="22.8936" fill="#FAF7F4"/>
<rect x="24.76" y="33.56" width="6.88" height="9.6" rx="3.44" fill="black"/>
<rect x="48.5183" y="33.56" width="6.88" height="9.6" rx="3.44" fill="black"/>
<path d="M44.3345 43.6706C44.3345 44.0216 44.2472 44.381 44.0624 44.7319C43.8764 45.0849 43.5914 45.4287 43.2049 45.7327C42.8181 46.0368 42.3435 46.2897 41.8027 46.4658C41.2623 46.6418 40.676 46.7345 40.0791 46.7345C39.4823 46.7345 38.8959 46.6418 38.3555 46.4658C37.8148 46.2897 37.3402 46.0368 36.9534 45.7327C36.5668 45.4287 36.2819 45.0849 36.0959 44.7319C35.911 44.381 35.8238 44.0216 35.8238 43.6706" stroke="black" stroke-width="2.04255" stroke-linecap="round"/>
</svg>
