<svg width="82" height="82" viewBox="0 0 82 82" fill="none" xmlns="http://www.w3.org/2000/svg">
<path d="M76.8923 57.5447C74.6724 62.3055 71.5365 66.5823 67.6636 70.1311C63.7908 73.6799 59.2569 76.4311 54.3208 78.2277L40.64 40.64L76.8923 57.5447Z" fill="#24AD58"/>
<path d="M54.3208 78.2277C49.3847 80.0243 44.1431 80.8311 38.8952 80.6019C33.6474 80.3728 28.496 79.1123 23.7353 76.8923L40.64 40.64L54.3208 78.2277Z" fill="#2081C1"/>
<path d="M23.7353 76.8923C14.1206 72.4089 6.6807 64.2897 3.05232 54.3208L40.64 40.64L23.7353 76.8923Z" fill="#79467D"/>
<path d="M3.05232 54.3208C-0.576051 44.3519 -0.0956962 33.35 4.38771 23.7353L40.64 40.64L3.05232 54.3208Z" fill="#D73A51"/>
<path d="M4.38771 23.7353C8.87113 14.1206 16.9903 6.68069 26.9592 3.05231L40.64 40.64L4.38771 23.7353Z" fill="#F36346"/>
<path d="M26.9592 3.05231C31.8953 1.25572 37.1369 0.44896 42.3848 0.678087C47.6327 0.907215 52.784 2.16774 57.5448 4.38771L40.64 40.64L26.9592 3.05231Z" fill="#FA9E29"/>
<path d="M57.5448 4.38771C62.3055 6.60767 66.5823 9.74359 70.1311 13.6164C73.6799 17.4892 76.4311 22.0231 78.2277 26.9592L40.64 40.64L57.5448 4.38771Z" fill="#F7C335"/>
<path d="M78.2277 26.9592C80.0243 31.8953 80.8311 37.1369 80.6019 42.3848C80.3728 47.6327 79.1123 52.784 76.8923 57.5447L40.64 40.64L78.2277 26.9592Z" fill="#85BF32"/>
<path d="M76.8923 57.5447C74.6724 62.3055 71.5365 66.5823 67.6636 70.1311C63.7908 73.6799 59.2569 76.4311 54.3208 78.2277M76.8923 57.5447L40.64 40.64M76.8923 57.5447C79.1123 52.784 80.3728 47.6327 80.6019 42.3848C80.8311 37.1369 80.0243 31.8953 78.2277 26.9592M54.3208 78.2277L40.64 40.64M54.3208 78.2277C49.3847 80.0243 44.1431 80.8311 38.8952 80.6019C33.6474 80.3728 28.496 79.1123 23.7353 76.8923M40.64 40.64L23.7353 76.8923M40.64 40.64L3.05232 54.3208M40.64 40.64L4.38771 23.7353M40.64 40.64L26.9592 3.05231M40.64 40.64L57.5448 4.38771M40.64 40.64L78.2277 26.9592M23.7353 76.8923C14.1206 72.4089 6.6807 64.2897 3.05232 54.3208M3.05232 54.3208C-0.576051 44.3519 -0.0956962 33.35 4.38771 23.7353M4.38771 23.7353C8.87113 14.1206 16.9903 6.68069 26.9592 3.05231M26.9592 3.05231C31.8953 1.25572 37.1369 0.44896 42.3848 0.678087C47.6327 0.907215 52.784 2.16774 57.5448 4.38771M57.5448 4.38771C62.3055 6.60767 66.5823 9.74359 70.1311 13.6164C73.6799 17.4892 76.4311 22.0231 78.2277 26.9592" stroke="#241400" stroke-width="1.28"/>
<rect x="18.24" y="18.24" width="44.8272" height="44.8272" rx="22.4136" fill="white"/>
<rect x="18.24" y="18.24" width="44.8272" height="44.8272" rx="22.4136" stroke="#241400" stroke-width="0.96"/>
<rect x="25.4" y="34.2" width="6.88" height="9.6" rx="3.44" fill="black"/>
<rect x="49.1583" y="34.2" width="6.88" height="9.6" rx="3.44" fill="black"/>
<path d="M44.9745 44.3106C44.9745 44.6616 44.8873 45.021 44.7024 45.372C44.5164 45.725 44.2315 46.0687 43.8449 46.3727C43.4581 46.6768 42.9835 46.9297 42.4428 47.1058C41.9024 47.2818 41.316 47.3745 40.7192 47.3745C40.1223 47.3745 39.536 47.2818 38.9956 47.1058C38.4549 46.9297 37.9802 46.6768 37.5934 46.3727C37.2069 46.0687 36.9219 45.725 36.736 45.372C36.5511 45.021 36.4639 44.6616 36.4639 44.3106" stroke="black" stroke-width="2.04255" stroke-linecap="round"/>
</svg>
