<svg width="418" height="418" viewBox="0 0 418 418" fill="none" xmlns="http://www.w3.org/2000/svg">
<path d="M395.034 295.636C383.629 320.094 367.519 342.067 347.622 360.299C327.725 378.53 304.432 392.665 279.073 401.895L208.788 208.788L395.034 295.636Z" fill="#24AD58"/>
<path d="M279.073 401.895C253.714 411.125 226.785 415.27 199.824 414.092C172.863 412.915 146.398 406.439 121.94 395.034L208.788 208.788L279.073 401.895Z" fill="#2081C1"/>
<path d="M121.94 395.034C72.5445 372.001 34.322 330.288 15.6813 279.073L208.788 208.788L121.94 395.034Z" fill="#79467D"/>
<path d="M15.6813 279.073C-2.95951 227.858 -0.491691 171.336 22.5418 121.94L208.788 208.788L15.6813 279.073Z" fill="#D73A51"/>
<path d="M22.5418 121.94C45.5754 72.5444 87.2879 34.322 138.503 15.6812L208.788 208.788L22.5418 121.94Z" fill="#F36346"/>
<path d="M138.503 15.6812C163.862 6.4512 190.791 2.30645 217.752 3.48359C244.713 4.66073 271.178 11.1367 295.636 22.5418L208.788 208.788L138.503 15.6812Z" fill="#FA9E29"/>
<path d="M295.636 22.5418C320.094 33.9468 342.067 50.0576 360.299 69.9543C378.531 89.8509 392.665 113.144 401.895 138.503L208.788 208.788L295.636 22.5418Z" fill="#F7C335"/>
<path d="M401.895 138.503C411.125 163.862 415.27 190.791 414.093 217.752C412.915 244.713 406.439 271.178 395.034 295.636L208.788 208.788L401.895 138.503Z" fill="#85BF32"/>
<path d="M395.034 295.636C383.629 320.094 367.519 342.067 347.622 360.299C327.725 378.53 304.432 392.665 279.073 401.895M395.034 295.636L208.788 208.788M395.034 295.636C406.439 271.178 412.915 244.713 414.093 217.752C415.27 190.791 411.125 163.862 401.895 138.503M279.073 401.895L208.788 208.788M279.073 401.895C253.714 411.125 226.785 415.27 199.824 414.092C172.863 412.915 146.398 406.439 121.94 395.034M208.788 208.788L121.94 395.034M208.788 208.788L15.6813 279.073M208.788 208.788L22.5418 121.94M208.788 208.788L138.503 15.6812M208.788 208.788L295.636 22.5418M208.788 208.788L401.895 138.503M121.94 395.034C72.5445 372.001 34.322 330.288 15.6813 279.073M15.6813 279.073C-2.95951 227.858 -0.491691 171.336 22.5418 121.94M22.5418 121.94C45.5754 72.5444 87.2879 34.322 138.503 15.6812M138.503 15.6812C163.862 6.4512 190.791 2.30645 217.752 3.48359C244.713 4.66073 271.178 11.1367 295.636 22.5418M295.636 22.5418C320.094 33.9468 342.067 50.0576 360.299 69.9543C378.531 89.8509 392.665 113.144 401.895 138.503" stroke="#241400" stroke-width="6.576"/>
<rect x="93.7081" y="93.708" width="230.3" height="230.3" rx="115.15" fill="white"/>
<rect x="93.7081" y="93.708" width="230.3" height="230.3" rx="115.15" stroke="#241400" stroke-width="4.932"/>
<rect x="130.33" y="175.54" width="35.346" height="49.32" rx="17.673" fill="black"/>
<rect x="252.388" y="175.54" width="35.346" height="49.32" rx="17.673" fill="black"/>
<path d="M230.894 227.483C230.894 229.286 230.446 231.133 229.496 232.936C228.541 234.75 227.077 236.516 225.091 238.077C223.103 239.64 220.665 240.939 217.887 241.844C215.111 242.748 212.098 243.224 209.032 243.224C205.966 243.224 202.954 242.748 200.177 241.844C197.399 240.939 194.961 239.64 192.974 238.077C190.988 236.516 189.524 234.75 188.568 232.936C187.619 231.133 187.17 229.286 187.17 227.483" stroke="black" stroke-width="10.4936" stroke-linecap="round"/>
</svg>
